<svg width="174" height="16" viewBox="0 0 174 16" fill="none" xmlns="http://www.w3.org/2000/svg">
<path d="M0 0.914032H3.02004L12.2998 5.77131V0.914032H15.3198V15.7986H12.2998V8.97041L3.02004 4.1432V15.8001H0V0.914032Z" fill="white"/>
<path d="M18.5023 10.1806C18.5023 9.3748 18.6662 8.61862 18.9926 7.91356C19.3189 7.20849 19.7867 6.59363 20.3928 6.06596C20.9989 5.53829 21.7329 5.12337 22.5932 4.81819C23.4534 4.51301 24.4205 4.36118 25.4944 4.36118C26.5682 4.36118 27.5353 4.51301 28.3956 4.81819C29.2559 5.12337 29.9899 5.53829 30.596 6.06596C31.2021 6.59363 31.6698 7.20849 31.9962 7.91356C32.3226 8.61862 32.4865 9.3733 32.4865 10.1806C32.4865 10.9879 32.3226 11.7426 31.9962 12.4476C31.6683 13.1527 31.2021 13.7675 30.596 14.2952C29.9899 14.8229 29.2559 15.2378 28.3956 15.543C27.5353 15.8482 26.5682 16 25.4944 16C24.4205 16 23.4534 15.8482 22.5932 15.543C21.7329 15.2378 20.9989 14.8229 20.3928 14.2952C19.7867 13.7675 19.3189 13.1527 18.9926 12.4476C18.6647 11.7426 18.5023 10.9879 18.5023 10.1806ZM21.4667 10.1806C21.4667 10.6316 21.5569 11.0585 21.7374 11.4614C21.9179 11.8643 22.1826 12.2206 22.5285 12.5273C22.8744 12.8355 23.297 13.079 23.7964 13.2609C24.2942 13.4413 24.8612 13.533 25.4974 13.533C26.1336 13.533 26.6991 13.4428 27.1984 13.2609C27.6962 13.0805 28.1189 12.8355 28.4663 12.5273C28.8122 12.2191 29.0754 11.8643 29.2574 11.4614C29.4379 11.0585 29.5296 10.6316 29.5296 10.1806C29.5296 9.72959 29.4394 9.30114 29.2574 8.89524C29.0769 8.48934 28.8122 8.13154 28.4663 7.82336C28.1204 7.51517 27.6977 7.27163 27.1984 7.08973C26.6991 6.90933 26.1321 6.81763 25.4974 6.81763C24.8627 6.81763 24.2957 6.90783 23.7964 7.08973C23.297 7.27013 22.8759 7.51517 22.5285 7.82336C22.1826 8.13154 21.9194 8.48783 21.7374 8.89524C21.5569 9.30114 21.4667 9.72959 21.4667 10.1806Z" fill="white"/>
<path d="M35.3381 4.56113H38.1581V6.18022C38.7808 5.7172 39.438 5.31731 40.1299 4.98056C40.8217 4.64381 41.5121 4.38674 42.1979 4.20935L43.0266 6.79058C41.9407 6.89882 40.9857 7.14086 40.163 7.5197C39.3403 7.89703 38.6725 8.42921 38.1566 9.11474V15.8001H35.3366V4.56113H35.3381Z" fill="white"/>
<path d="M45.1999 4.56112H48.0199V5.51423C48.7253 5.08278 49.4126 4.78211 50.0834 4.61374C50.7542 4.44536 51.4099 4.36118 52.0506 4.36118C52.9455 4.36118 53.7682 4.50399 54.5187 4.78963C55.2677 5.07526 55.9099 5.50672 56.4438 6.0855C56.8574 5.7683 57.2635 5.4992 57.6636 5.28122C58.0636 5.06173 58.4637 4.88434 58.8638 4.74753C59.2638 4.61073 59.6699 4.51301 60.0835 4.45288C60.4956 4.39275 60.9212 4.36268 61.3604 4.36268C62.2809 4.36268 63.1171 4.48746 63.8661 4.73851C64.6151 4.98957 65.2558 5.3624 65.7852 5.85699C66.3161 6.35159 66.7252 6.96946 67.014 7.7091C67.3027 8.44875 67.4471 9.30414 67.4471 10.2753V15.7986H64.6361V10.7323C64.6361 10.1159 64.5489 9.56572 64.3744 9.08015C64.2 8.59457 63.9548 8.18566 63.6405 7.85192C63.3261 7.51818 62.9516 7.26412 62.5155 7.08973C62.0808 6.91534 61.6026 6.82815 61.0822 6.82815C60.7964 6.82815 60.5046 6.85521 60.2053 6.90933C59.906 6.96345 59.6158 7.04764 59.333 7.16189C59.0503 7.27614 58.7855 7.42046 58.5374 7.59485C58.2892 7.76924 58.0742 7.97369 57.8892 8.20971V15.8001H55.0782V10.7338C55.0782 10.1174 54.9909 9.56723 54.8165 9.08165C54.642 8.59607 54.3969 8.18717 54.0825 7.85342C53.7682 7.51968 53.3907 7.26562 52.9485 7.09123C52.5063 6.91685 52.022 6.82965 51.4956 6.82965C51.1723 6.82965 50.8459 6.86273 50.5195 6.93038C50.1917 6.99652 49.8773 7.09123 49.5765 7.2115C49.2742 7.33177 48.9915 7.47759 48.7283 7.64897C48.4651 7.82035 48.2274 8.01428 48.0184 8.22926V15.8001H45.1984V4.56112H45.1999Z" fill="white"/>
<path d="M70.4581 12.2567C70.4581 11.717 70.5754 11.2254 70.8101 10.7804C71.0447 10.3354 71.3981 9.95358 71.8674 9.63337C72.3381 9.31316 72.9232 9.06511 73.6256 8.89073C74.3279 8.71634 75.1446 8.62915 76.0786 8.62915C76.7704 8.62915 77.4999 8.68026 78.2654 8.78098C79.031 8.88321 79.8206 9.03805 80.6327 9.24702C80.6011 8.89223 80.4928 8.563 80.3094 8.26083C80.1259 7.96016 79.8702 7.69858 79.5423 7.4806C79.2144 7.26111 78.8219 7.09123 78.3602 6.97097C77.8999 6.8507 77.3766 6.79057 76.793 6.79057C76.4757 6.79057 76.1267 6.81011 75.7447 6.84769C75.3642 6.88528 74.9701 6.9424 74.5626 7.01907C74.1565 7.09574 73.7549 7.19045 73.3579 7.30471C72.9608 7.41896 72.5908 7.55576 72.2479 7.71361L71.3906 5.39998C71.8162 5.24814 72.272 5.10833 72.7578 4.98055C73.2435 4.85427 73.7399 4.74453 74.2482 4.65132C74.7566 4.55962 75.2649 4.48746 75.7733 4.43785C76.2816 4.38673 76.7734 4.36118 77.2502 4.36118C79.3528 4.36118 80.9155 4.89787 81.9382 5.97125C82.9609 7.04463 83.4723 8.68928 83.4723 10.9037V15.7986H80.6523V14.7417C80.3605 14.9131 80.0401 15.0754 79.6942 15.2273C79.3483 15.3791 78.9723 15.5129 78.5647 15.6272C78.1586 15.7414 77.721 15.8316 77.2547 15.8978C76.7885 15.9639 76.2937 15.997 75.7733 15.997C74.8964 15.997 74.1264 15.9023 73.4631 15.7114C72.7999 15.5204 72.2449 15.2574 71.8012 14.9206C71.356 14.5839 71.0221 14.1885 70.7965 13.7345C70.5709 13.2805 70.4581 12.7874 70.4581 12.2537V12.2567ZM73.43 12.162C73.43 12.3469 73.4782 12.5228 73.5729 12.6897C73.6677 12.858 73.8211 13.0069 74.0301 13.1376C74.2392 13.2684 74.5084 13.3722 74.8348 13.4518C75.1612 13.5315 75.5567 13.5706 76.0214 13.5706C76.5163 13.5706 76.996 13.527 77.4608 13.4368C77.924 13.3481 78.3557 13.2309 78.7572 13.085C79.1573 12.9392 79.5198 12.7708 79.8431 12.5799C80.1665 12.389 80.4372 12.1921 80.6523 11.9891V11.4945C80.2206 11.3742 79.7935 11.272 79.3709 11.1893C78.9482 11.1066 78.5452 11.042 78.1601 10.9939C77.7751 10.9458 77.4142 10.9127 77.0743 10.8947C76.7343 10.8751 76.4381 10.8661 76.1839 10.8661C75.656 10.8661 75.2183 10.9007 74.8694 10.9713C74.5204 11.0405 74.2377 11.1352 74.0211 11.2525C73.8045 11.3697 73.6526 11.508 73.5639 11.6674C73.4752 11.8267 73.43 11.9906 73.43 12.162Z" fill="white"/>
<path d="M87.1977 4.56111H90.0177V5.51423C90.7667 5.08878 91.4841 4.79112 92.167 4.61974C92.8498 4.44836 93.5191 4.36267 94.1718 4.36267C95.0291 4.36267 95.8232 4.48745 96.5541 4.7385C97.2851 4.98956 97.9168 5.36239 98.4507 5.85699C98.9846 6.35158 99.4012 6.96946 99.7035 7.7091C100.006 8.44874 100.156 9.30414 100.156 10.2753V15.7985H97.3452V10.7323C97.3452 10.1159 97.258 9.56572 97.0835 9.08014C96.9091 8.59456 96.6579 8.18565 96.3315 7.85191C96.0037 7.51817 95.6081 7.26411 95.1404 7.08972C94.6741 6.91533 94.1507 6.82814 93.5732 6.82814C93.2679 6.82814 92.9551 6.85971 92.6347 6.92285C92.3143 6.98599 92 7.07619 91.6917 7.19496C91.3834 7.31222 91.0871 7.45804 90.8013 7.63243C90.5156 7.80681 90.2554 8.00525 90.0207 8.22775V15.7985H87.2007V4.56111H87.1977Z" fill="white"/>
<path d="M102.748 10.2287C102.748 9.33421 102.916 8.52542 103.253 7.80532C103.59 7.08522 104.055 6.46885 104.649 5.95772C105.243 5.44659 105.948 5.05271 106.763 4.7761C107.58 4.49948 108.464 4.36118 109.416 4.36118C109.822 4.36118 110.224 4.38673 110.621 4.43785C111.018 4.48896 111.399 4.55811 111.764 4.64681C112.13 4.73551 112.473 4.84224 112.793 4.96552C113.113 5.08879 113.397 5.22409 113.646 5.36992V0H116.466V15.8001H113.646V14.7432C113.397 14.9146 113.106 15.077 112.769 15.2288C112.432 15.3806 112.069 15.5144 111.683 15.6287C111.295 15.7429 110.893 15.8331 110.477 15.8993C110.06 15.9654 109.65 15.9985 109.243 15.9985C108.291 15.9985 107.416 15.8587 106.619 15.5791C105.822 15.2994 105.137 14.9056 104.566 14.399C103.994 13.8908 103.548 13.2835 103.227 12.5754C102.907 11.8673 102.746 11.0856 102.746 10.2287H102.748ZM105.711 10.2287C105.711 10.6797 105.801 11.1051 105.981 11.505C106.162 11.9049 106.423 12.2552 106.762 12.5574C107.102 12.8595 107.511 13.0971 107.991 13.2714C108.47 13.4458 109.009 13.533 109.606 13.533C109.986 13.533 110.368 13.4969 110.749 13.4233C111.129 13.3496 111.496 13.2474 111.85 13.1136C112.203 12.9798 112.533 12.8189 112.841 12.628C113.149 12.4371 113.417 12.2251 113.646 11.9906V8.09546C113.36 7.86696 113.058 7.67303 112.74 7.51367C112.423 7.35432 112.098 7.22503 111.769 7.12281C111.438 7.02058 111.105 6.94691 110.768 6.89881C110.432 6.8507 110.105 6.82665 109.788 6.82665C109.14 6.82665 108.564 6.91384 108.058 7.08823C107.553 7.26262 107.127 7.50315 106.781 7.80682C106.435 8.112 106.171 8.46979 105.986 8.88321C105.802 9.29663 105.709 9.74312 105.709 10.2257L105.711 10.2287Z" fill="white"/>
<path d="M121.403 3.02923C121.124 3.02923 120.871 2.99014 120.645 2.91046C120.42 2.83079 120.227 2.72255 120.069 2.58725C119.91 2.45044 119.788 2.29259 119.702 2.11069C119.617 1.93029 119.573 1.73786 119.573 1.53491C119.573 1.33196 119.615 1.13051 119.702 0.948611C119.788 0.768211 119.91 0.610361 120.069 0.476564C120.227 0.342767 120.42 0.237533 120.645 0.157857C120.871 0.0781797 121.124 0.039093 121.403 0.039093C121.683 0.039093 121.945 0.0781797 122.17 0.157857C122.396 0.237533 122.588 0.342767 122.746 0.476564C122.906 0.610361 123.028 0.766708 123.113 0.948611C123.199 1.12901 123.243 1.32445 123.243 1.53491C123.243 1.74538 123.199 1.93029 123.113 2.11069C123.028 2.29109 122.906 2.45044 122.746 2.58725C122.587 2.72405 122.396 2.83229 122.17 2.91046C121.945 2.99014 121.689 3.02923 121.403 3.02923ZM119.993 4.56113H122.813V15.7986H119.993V4.56113Z" fill="white"/>
<path d="M125.89 10.143C125.89 9.38081 126.045 8.6532 126.356 7.95715C126.667 7.26261 127.116 6.64775 127.699 6.11406C128.284 5.58038 129 5.15494 129.848 4.83773C130.697 4.52053 131.661 4.36118 132.741 4.36118C133.82 4.36118 134.781 4.52203 135.642 4.84224C136.502 5.16245 137.233 5.60293 137.833 6.16067C138.433 6.71991 138.893 7.37687 139.215 8.13154C139.536 8.88772 139.697 9.69651 139.697 10.5594C139.697 10.6677 139.695 10.7834 139.692 10.9067C139.689 11.03 139.681 11.1427 139.668 11.2449H129.035C129.155 11.5817 129.35 11.8899 129.621 12.168C129.892 12.4476 130.229 12.6882 130.636 12.8911C131.042 13.0941 131.513 13.2519 132.047 13.3631C132.581 13.4744 133.171 13.53 133.819 13.53C134.467 13.53 135.111 13.4624 135.753 13.3256C136.395 13.1888 137.007 13.0159 137.592 12.8069L138.544 14.9597C138.176 15.1311 137.803 15.2814 137.425 15.4122C137.048 15.543 136.654 15.6497 136.243 15.7369C135.834 15.8226 135.406 15.8872 134.957 15.9324C134.509 15.9759 134.038 15.9985 133.542 15.9985C132.279 15.9985 131.17 15.8467 130.217 15.5415C129.265 15.2363 128.466 14.8214 127.825 14.2937C127.183 13.766 126.702 13.1482 126.377 12.4371C126.052 11.726 125.891 10.9608 125.891 10.1415L125.89 10.143ZM136.704 9.04707C136.601 8.73588 136.445 8.44574 136.233 8.17514C136.019 7.90604 135.755 7.67002 135.437 7.47007C135.12 7.27013 134.751 7.11228 134.332 6.99803C133.912 6.88377 133.452 6.82665 132.95 6.82665C132.416 6.82665 131.93 6.88678 131.492 7.00705C131.055 7.12731 130.669 7.28967 130.34 7.49262C130.009 7.69557 129.736 7.93009 129.516 8.19769C129.296 8.46378 129.137 8.74641 129.035 9.04557H136.705L136.704 9.04707Z" fill="white"/>
<path d="M153.13 12.2567C153.13 11.717 153.248 11.2254 153.482 10.7804C153.717 10.3354 154.07 9.95358 154.54 9.63337C155.009 9.31316 155.595 9.06511 156.298 8.89073C157 8.71634 157.817 8.62915 158.751 8.62915C159.443 8.62915 160.172 8.68026 160.938 8.78098C161.703 8.88321 162.493 9.03805 163.305 9.24702C163.273 8.89223 163.165 8.563 162.982 8.26083C162.797 7.96016 162.541 7.69858 162.214 7.4806C161.887 7.26111 161.494 7.09123 161.034 6.97097C160.574 6.8507 160.05 6.79057 159.467 6.79057C159.149 6.79057 158.8 6.81011 158.418 6.84769C158.036 6.88528 157.644 6.9424 157.236 7.01907C156.83 7.09574 156.429 7.19045 156.031 7.30471C155.634 7.41896 155.264 7.55576 154.922 7.71361L154.064 5.39998C154.49 5.24814 154.946 5.10833 155.431 4.98055C155.917 4.85427 156.415 4.74453 156.922 4.65132C157.43 4.55962 157.939 4.48746 158.447 4.43785C158.955 4.38673 159.447 4.36118 159.924 4.36118C162.026 4.36118 163.589 4.89787 164.612 5.97125C165.635 7.04463 166.146 8.68928 166.146 10.9037V15.7986H163.326V14.7417C163.034 14.9131 162.715 15.0754 162.368 15.2273C162.022 15.3791 161.644 15.5129 161.238 15.6272C160.832 15.7414 160.395 15.8316 159.928 15.8978C159.461 15.9639 158.967 15.997 158.447 15.997C157.57 15.997 156.8 15.9023 156.137 15.7114C155.474 15.5204 154.919 15.2574 154.475 14.9206C154.03 14.5839 153.694 14.1885 153.47 13.7345C153.245 13.2805 153.132 12.7874 153.132 12.2537L153.13 12.2567ZM156.104 12.162C156.104 12.3469 156.152 12.5228 156.247 12.6897C156.341 12.858 156.495 13.0069 156.704 13.1376C156.913 13.2684 157.182 13.3722 157.508 13.4518C157.835 13.5315 158.23 13.5706 158.695 13.5706C159.191 13.5706 159.67 13.527 160.134 13.4368C160.598 13.3481 161.029 13.2309 161.431 13.085C161.831 12.9392 162.193 12.7708 162.517 12.5799C162.842 12.389 163.111 12.1921 163.326 11.9891V11.4945C162.894 11.3742 162.467 11.272 162.045 11.1893C161.622 11.1066 161.219 11.042 160.834 10.9939C160.449 10.9458 160.088 10.9127 159.748 10.8947C159.408 10.8751 159.11 10.8661 158.858 10.8661C158.33 10.8661 157.892 10.9007 157.543 10.9713C157.194 11.0405 156.911 11.1352 156.695 11.2525C156.478 11.3697 156.326 11.508 156.238 11.6674C156.149 11.8267 156.104 11.9906 156.104 12.162Z" fill="white"/>
<path d="M171.357 3.02923C171.078 3.02923 170.825 2.99014 170.599 2.91046C170.374 2.83079 170.181 2.72255 170.023 2.58725C169.864 2.45044 169.742 2.29259 169.656 2.11069C169.571 1.93029 169.527 1.73786 169.527 1.53491C169.527 1.33196 169.569 1.13051 169.656 0.948611C169.742 0.768211 169.864 0.610361 170.023 0.476564C170.181 0.342767 170.374 0.237533 170.599 0.157857C170.825 0.0781797 171.078 0.039093 171.357 0.039093C171.637 0.039093 171.899 0.0781797 172.124 0.157857C172.35 0.237533 172.543 0.342767 172.7 0.476564C172.858 0.610361 172.982 0.766708 173.067 0.948611C173.153 1.12901 173.197 1.32445 173.197 1.53491C173.197 1.74538 173.153 1.93029 173.067 2.11069C172.982 2.29109 172.86 2.45044 172.7 2.58725C172.541 2.72405 172.35 2.83229 172.124 2.91046C171.899 2.99014 171.643 3.02923 171.357 3.02923ZM169.947 4.56113H172.767V15.7986H169.947V4.56113Z" fill="white"/>
<path opacity="0.5" d="M146.162 15.997C147.421 15.997 148.441 14.9773 148.441 13.7194C148.441 12.4616 147.421 11.4419 146.162 11.4419C144.904 11.4419 143.884 12.4616 143.884 13.7194C143.884 14.9773 144.904 15.997 146.162 15.997Z" fill="white"/>
</svg>
